<svg xmlns="http://www.w3.org/2000/svg" viewBox="0 0 1280 720" fill="none">
  <defs>
    <linearGradient id="rest-bg" x1="0" y1="0" x2="0" y2="1">
      <stop offset="0%" stop-color="#2c1a0e"/>
      <stop offset="100%" stop-color="#1a0f08"/>
    </linearGradient>
    <linearGradient id="table-g" x1="0" y1="0" x2="0" y2="1">
      <stop offset="0%" stop-color="#5D4037"/>
      <stop offset="100%" stop-color="#4E342E"/>
    </linearGradient>
  </defs>
  <rect width="1280" height="720" fill="url(#rest-bg)"/>
  <rect y="580" width="1280" height="140" fill="#1a0f08"/>
  <rect y="576" width="1280" height="6" fill="#3d2b1f"/>
  <rect y="0" width="1280" height="55" fill="#241205"/>
  <rect y="50" width="1280" height="6" fill="#3d2b1f"/>
  <rect x="200" y="60" width="150" height="14" rx="2" fill="#5D4037"/>
  <rect x="600" y="60" width="150" height="14" rx="2" fill="#5D4037"/>
  <rect x="1000" y="60" width="150" height="14" rx="2" fill="#5D4037"/>
  <circle cx="275" cy="48" r="18" fill="#FF8F00" opacity="0.9"/>
  <ellipse cx="275" cy="58" rx="40" ry="12" fill="#FF8F00" opacity="0.15"/>
  <circle cx="675" cy="48" r="18" fill="#FF8F00" opacity="0.9"/>
  <ellipse cx="675" cy="58" rx="40" ry="12" fill="#FF8F00" opacity="0.15"/>
  <circle cx="1075" cy="48" r="18" fill="#FF8F00" opacity="0.9"/>
  <ellipse cx="1075" cy="58" rx="40" ry="12" fill="#FF8F00" opacity="0.15"/>
  <rect x="60" y="380" width="320" height="120" rx="6" fill="url(#table-g)"/>
  <rect x="60" y="374" width="320" height="14" rx="4" fill="#6D4C41"/>
  <circle cx="170" cy="374" r="45" fill="url(#table-g)"/>
  <circle cx="170" cy="374" r="40" fill="#5D4037"/>
  <circle cx="230" cy="355" r="35" fill="url(#table-g)"/>
  <ellipse cx="100" cy="378" rx="22" ry="4" fill="white" opacity="0.7"/>
  <rect x="100" y="366" width="12" height="20" rx="2" fill="#ff6f00" opacity="0.7"/>
  <rect x="156" y="368" width="18" height="12" rx="2" fill="white" opacity="0.5"/>
  <circle cx="230" cy="366" r="12" fill="#BCAAA4" opacity="0.7"/>
  <rect x="480" y="340" width="320" height="140" rx="6" fill="url(#table-g)"/>
  <rect x="480" y="334" width="320" height="14" rx="4" fill="#6D4C41"/>
  <ellipse cx="560" cy="342" rx="22" ry="4" fill="white" opacity="0.7"/>
  <rect x="552" y="330" width="12" height="20" rx="2" fill="#ff6f00" opacity="0.7"/>
  <ellipse cx="690" cy="342" rx="22" ry="4" fill="white" opacity="0.7"/>
  <rect x="682" y="330" width="12" height="20" rx="2" fill="#ff6f00" opacity="0.7"/>
  <rect x="900" y="370" width="320" height="120" rx="6" fill="url(#table-g)"/>
  <rect x="900" y="364" width="320" height="14" rx="4" fill="#6D4C41"/>
  <ellipse cx="960" cy="372" rx="22" ry="4" fill="white" opacity="0.7"/>
  <rect x="952" y="360" width="12" height="20" rx="2" fill="#ff6f00" opacity="0.7"/>
  <ellipse cx="1110" cy="372" rx="22" ry="4" fill="white" opacity="0.7"/>
  <rect x="60" y="500" width="80" height="80" rx="3" fill="#3d2b1f"/>
  <rect x="60" y="500" width="80" height="80" rx="3" stroke="#5D4037" stroke-width="3" fill="none"/>
  <rect x="480" y="500" width="80" height="80" rx="3" fill="#3d2b1f" stroke="#5D4037" stroke-width="3"/>
  <rect x="900" y="500" width="80" height="80" rx="3" fill="#3d2b1f" stroke="#5D4037" stroke-width="3"/>
  <rect x="0" y="100" width="6" height="480" fill="#3d2b1f" opacity="0.5"/>
  <rect x="1274" y="100" width="6" height="480" fill="#3d2b1f" opacity="0.5"/>
  <rect x="6" y="120" width="60" height="440" fill="#2c1a0e" opacity="0.8"/>
  <rect x="1214" y="120" width="60" height="440" fill="#2c1a0e" opacity="0.8"/>
  <rect x="0" y="120" width="6" height="440" fill="#FF8F00" opacity="0.05"/>
  <rect x="1274" y="120" width="6" height="440" fill="#FF8F00" opacity="0.05"/>
</svg>