<svg xmlns="http://www.w3.org/2000/svg" viewBox="0 0 1280 720" fill="none">
  <defs>
    <linearGradient id="gallery-wall" x1="0" y1="0" x2="0" y2="1">
      <stop offset="0%" stop-color="#f5f0ea"/>
      <stop offset="100%" stop-color="#ece5d8"/>
    </linearGradient>
    <linearGradient id="gallery-floor" x1="0" y1="0" x2="0" y2="1">
      <stop offset="0%" stop-color="#c8b99a"/>
      <stop offset="100%" stop-color="#a89070"/>
    </linearGradient>
  </defs>
  <rect width="1280" height="720" fill="url(#gallery-wall)"/>
  <rect y="560" width="1280" height="160" fill="url(#gallery-floor)"/>
  <rect y="556" width="1280" height="8" fill="#9e8868"/>
  <rect y="0" width="1280" height="50" fill="#f0ebe0"/>
  <rect y="46" width="1280" height="6" fill="#d4c8b0"/>
  <rect x="60" y="80" width="220" height="280" rx="3" fill="#ece5d8" stroke="#c8b99a" stroke-width="8"/>
  <rect x="68" y="88" width="204" height="264" rx="2" fill="#7B1FA2" opacity="0.6"/>
  <ellipse cx="170" cy="60" rx="12" ry="20" fill="#FFF9C4" opacity="0.9"/>
  <ellipse cx="170" cy="72" rx="30" ry="8" fill="#FFF9C4" opacity="0.2"/>
  <rect x="380" y="100" width="280" height="220" rx="3" fill="#ece5d8" stroke="#c8b99a" stroke-width="8"/>
  <rect x="388" y="108" width="264" height="204" rx="2" fill="#1565C0" opacity="0.5"/>
  <ellipse cx="520" cy="80" rx="12" ry="20" fill="#FFF9C4" opacity="0.9"/>
  <ellipse cx="520" cy="92" rx="35" ry="8" fill="#FFF9C4" opacity="0.2"/>
  <rect x="760" y="90" width="200" height="260" rx="3" fill="#ece5d8" stroke="#c8b99a" stroke-width="8"/>
  <rect x="768" y="98" width="184" height="244" rx="2" fill="#2E7D32" opacity="0.5"/>
  <ellipse cx="860" cy="70" rx="12" ry="20" fill="#FFF9C4" opacity="0.9"/>
  <ellipse cx="860" cy="82" rx="30" ry="8" fill="#FFF9C4" opacity="0.2"/>
  <rect x="1020" y="110" width="220" height="200" rx="3" fill="#ece5d8" stroke="#c8b99a" stroke-width="8"/>
  <rect x="1028" y="118" width="204" height="184" rx="2" fill="#E65100" opacity="0.5"/>
  <ellipse cx="1130" cy="90" rx="12" ry="20" fill="#FFF9C4" opacity="0.9"/>
  <ellipse cx="1130" cy="102" rx="30" ry="8" fill="#FFF9C4" opacity="0.2"/>
  <rect x="80" y="400" width="180" height="140" rx="3" fill="#ece5d8" stroke="#c8b99a" stroke-width="6"/>
  <rect x="86" y="406" width="168" height="128" rx="2" fill="#880E4F" opacity="0.4"/>
  <rect x="500" y="420" width="300" height="120" rx="3" fill="#ece5d8" stroke="#c8b99a" stroke-width="6"/>
  <rect x="506" y="426" width="288" height="108" rx="2" fill="#004D40" opacity="0.4"/>
  <rect x="920" y="410" width="250" height="130" rx="3" fill="#ece5d8" stroke="#c8b99a" stroke-width="6"/>
  <rect x="926" y="416" width="238" height="118" rx="2" fill="#1A237E" opacity="0.4"/>
  <rect x="560" y="580" width="200" height="8" rx="3" fill="#8B7355" opacity="0.6"/>
  <circle cx="640" cy="560" r="6" fill="#9e8868"/>
  <rect x="530" y="556" width="50" height="14" rx="2" fill="#8B7355" opacity="0.3"/>
  <rect x="700" y="556" width="50" height="14" rx="2" fill="#8B7355" opacity="0.3"/>
</svg>